<?xml version="1.0" standalone="no"?>
<!DOCTYPE svg PUBLIC "-//W3C//DTD SVG 20010904//EN"
 "http://www.w3.org/TR/2001/REC-SVG-20010904/DTD/svg10.dtd">
<svg version="1.0" xmlns="http://www.w3.org/2000/svg"
 width="322.000000pt" height="369.000000pt" viewBox="0 0 322.000000 369.000000"
 preserveAspectRatio="xMidYMid meet">

<g transform="translate(0.000000,369.000000) scale(0.100000,-0.100000)"
fill="#000000" stroke="none">
<path d="M779 3405 l-285 -143 -157 -184 -157 -183 0 -829 0 -829 77 -91 c42
-50 113 -133 158 -185 l80 -93 287 -144 288 -144 437 1 c241 0 432 3 426 6
-17 6 -19 2929 -2 2950 10 11 -64 13 -427 12 l-439 0 -286 -144z"/>
<path d="M1957 3529 c7 -7 15 -10 18 -7 3 3 -2 9 -12 12 -14 6 -15 5 -6 -5z"/>
<path d="M2104 3456 c11 -9 24 -16 30 -16 12 0 7 5 -24 19 -24 11 -24 11 -6
-3z"/>
<path d="M2520 2065 c0 -994 2 -1187 13 -1175 29 32 254 296 273 322 12 15 20
39 19 55 -1 15 -3 390 -4 833 l-1 805 -108 126 c-59 69 -126 147 -149 175
l-42 49 -1 -1190z"/>
<path d="M169 383 c-29 -72 -109 -285 -109 -289 0 -2 15 -4 33 -4 29 0 35 5
46 35 l13 36 61 -3 c60 -3 62 -4 71 -35 8 -29 13 -33 42 -33 19 0 34 3 34 7 0
3 -26 75 -57 160 l-58 153 -33 0 c-26 0 -35 -5 -43 -27z m60 -110 c8 -21 16
-44 18 -50 4 -9 -7 -13 -35 -13 l-40 0 16 50 c9 28 19 50 22 50 3 0 12 -17 19
-37z"/>
<path d="M1967 267 c-73 -177 -73 -177 -54 -177 8 0 23 22 35 50 l21 51 72 -3
71 -3 17 -45 c10 -27 24 -46 35 -48 10 -2 17 0 15 5 -103 264 -125 313 -139
313 -10 0 -34 -47 -73 -143z m104 23 c15 -38 24 -72 21 -75 -8 -8 -112 -6
-112 2 0 15 53 143 59 143 4 0 18 -31 32 -70z"/>
<path d="M390 205 l0 -115 30 0 30 0 0 79 c0 85 10 105 52 99 22 -3 23 -8 26
-90 l3 -88 29 0 30 0 0 79 c0 85 10 105 52 99 22 -3 23 -8 26 -91 l3 -88 32 3
32 3 0 92 c0 75 -4 95 -19 112 -23 25 -91 29 -116 6 -15 -14 -18 -14 -30 0
-15 18 -72 20 -103 4 -16 -9 -22 -9 -25 0 -2 6 -15 11 -28 11 -24 0 -24 0 -24
-115z"/>
<path d="M805 295 c-14 -13 -25 -29 -25 -35 0 -16 67 -12 74 5 7 18 62 20 68
3 10 -26 -5 -38 -53 -44 -61 -8 -91 -31 -91 -67 0 -41 28 -67 74 -67 22 0 48
5 59 10 13 7 19 7 19 0 0 -5 14 -10 30 -10 l30 0 0 95 c0 121 -11 135 -100
135 -51 0 -65 -4 -85 -25z m125 -113 c0 -32 -24 -54 -55 -50 -22 2 -31 9 -33
25 -3 17 3 24 25 29 15 3 33 7 38 9 20 7 25 5 25 -13z"/>
<path d="M1034 305 c-10 -25 6 -35 58 -35 l50 0 -56 -64 c-38 -43 -56 -73 -56
-90 l0 -27 103 3 c94 3 102 4 102 23 0 17 -8 20 -57 23 -32 2 -58 5 -58 8 0 3
25 34 55 67 32 36 55 71 55 85 0 21 -3 22 -95 22 -74 0 -97 -3 -101 -15z"/>
<path d="M1298 291 c-30 -27 -33 -35 -33 -86 0 -51 3 -59 33 -86 41 -37 114
-41 155 -9 57 45 57 145 0 189 -41 33 -114 29 -155 -8z m117 -31 c43 -48 7
-140 -48 -126 -60 15 -48 146 13 146 9 0 25 -9 35 -20z"/>
<path d="M1540 205 l0 -115 30 0 30 0 0 71 c0 85 11 109 49 109 36 0 41 -13
41 -106 l0 -74 30 0 30 0 0 93 c0 115 -12 137 -74 137 -23 0 -48 -6 -55 -12
-11 -10 -14 -10 -18 0 -3 6 -18 12 -34 12 l-29 0 0 -115z"/>
<path d="M2202 226 c2 -75 7 -98 22 -115 23 -25 82 -28 112 -6 25 19 35 19 28
0 -4 -9 0 -15 10 -15 14 0 16 16 16 115 0 96 -3 115 -15 115 -12 0 -15 -15
-15 -79 0 -92 -21 -131 -70 -131 -50 0 -60 21 -60 121 0 75 -3 89 -16 89 -14
0 -15 -13 -12 -94z"/>
<path d="M2440 205 c0 -96 3 -115 15 -115 12 0 15 15 15 74 0 80 20 122 62
128 12 2 23 9 26 16 6 19 -33 14 -62 -9 l-26 -20 0 20 c0 12 -6 21 -15 21 -12
0 -15 -19 -15 -115z"/>
<path d="M2607 300 c-56 -44 -58 -140 -5 -185 85 -71 202 16 169 126 -22 73
-107 104 -164 59z m98 -6 c21 -8 45 -56 45 -89 0 -39 -27 -84 -55 -91 -79 -20
-132 66 -90 146 19 37 57 50 100 34z"/>
<path d="M2820 205 c0 -96 3 -115 15 -115 12 0 15 15 15 78 0 69 3 81 23 99
12 11 32 24 45 28 12 3 20 11 17 16 -10 16 -38 10 -62 -13 l-23 -21 0 21 c0
13 -6 22 -15 22 -12 0 -15 -19 -15 -115z"/>
<path d="M2980 300 c-20 -20 -27 -50 -11 -50 5 0 16 11 25 25 12 18 25 25 49
25 38 0 57 -15 57 -46 0 -17 -7 -24 -30 -28 -16 -3 -44 -9 -60 -12 -17 -3 -37
-12 -45 -21 -20 -19 -19 -67 1 -87 21 -21 92 -21 116 1 17 15 19 15 32 -2 9
-12 19 -16 32 -11 18 7 18 8 2 17 -15 8 -18 24 -18 93 0 100 -12 116 -83 116
-34 0 -53 -6 -67 -20z m120 -120 c0 -58 -69 -92 -112 -53 -43 39 -9 65 105 82
4 1 7 -12 7 -29z"/>
</g>
</svg>
