<?xml version="1.0" standalone="no"?>
<!DOCTYPE svg PUBLIC "-//W3C//DTD SVG 20010904//EN"
 "http://www.w3.org/TR/2001/REC-SVG-20010904/DTD/svg10.dtd">
<svg version="1.0" xmlns="http://www.w3.org/2000/svg"
 width="2097.000000pt" height="2049.000000pt" viewBox="0 0 2097.000000 2049.000000"
 preserveAspectRatio="xMidYMid meet">

<g transform="translate(0.000000,2049.000000) scale(0.100000,-0.100000)"
fill="#000000" stroke="none">
<path d="M20962 17946 c-9 -110 -94 -304 -192 -435 -623 -840 -2713 -1527
-5430 -1785 -1810 -172 -3697 -146 -5485 75 -575 71 -1093 160 -1745 299 -345
73 -882 223 -1225 340 -415 143 -869 347 -1158 521 -456 274 -751 597 -826
904 l-20 80 0 -1167 -1 -1168 -2073 -2 -2072 -3 -75 -23 c-357 -110 -604 -395
-650 -752 -8 -61 -10 -1371 -8 -4635 l3 -4550 22 -82 c85 -312 313 -549 624
-645 l74 -23 2075 -5 2075 -5 5 -1290 c6 -1444 0 -1320 80 -1492 57 -121 122
-214 235 -332 697 -728 2429 -1306 4765 -1590 1025 -125 2070 -179 3220 -168
745 8 1233 29 1870 83 2977 248 5234 993 5787 1910 45 74 78 150 106 239 l22
70 3 6615 c2 6181 0 9084 -6 9016z m-14917 -4803 c40 -103 2105 -5786 2105
-5793 0 -9 -1239 -16 -1240 -7 -1 1 -105 313 -233 692 l-233 690 -1086 3
-1087 2 -230 -692 -229 -693 -617 -3 -617 -2 4 22 c3 13 481 1310 1063 2883
581 1573 1062 2872 1067 2888 l10 27 658 0 c617 0 658 -1 665 -17z"/>
<path d="M5326 12113 c-10 -48 -28 -131 -42 -183 -19 -72 -711 -2208 -740
-2285 -5 -13 84 -15 806 -15 646 0 811 3 807 13 -9 25 -682 2116 -713 2218
-18 59 -44 157 -57 220 -13 62 -28 114 -34 116 -6 2 -17 -34 -27 -84z"/>
</g>
</svg>
