<?xml version="1.0" encoding="UTF-8"?>
<svg version="1.1" xmlns="http://www.w3.org/2000/svg" width="3000" height="3000">
<path d="M0 0 C6.61908363 6.36336866 11.35503522 13.57572808 15.38671875 21.765625 C15.72830521 22.45486053 16.06989166 23.14409607 16.42182922 23.85421753 C20.49471228 32.16545197 24.15622414 40.65362761 27.81640625 49.15234375 C28.56396298 50.87892053 29.31193542 52.60531737 30.06030273 54.33154297 C31.5572683 57.78639511 33.05180462 61.24228006 34.54394531 64.69921875 C36.37719257 68.94617531 38.21617321 73.19060997 40.05859375 77.43359375 C46.61599075 92.53994588 53.14594181 107.65820965 59.68115234 122.77416992 C63.88883696 132.5061588 68.10003047 142.23661712 72.31640625 151.96484375 C72.58021088 152.57351288 72.8440155 153.18218201 73.11581421 153.80929565 C74.95330142 158.04873612 76.79107623 162.28805189 78.62890625 166.52734375 C80.73326288 171.38142809 82.8375019 176.23556336 84.94140625 181.08984375 C85.20496918 181.69794891 85.4685321 182.30605408 85.74008179 182.93258667 C90.03294005 192.83796627 94.31925877 202.74616596 98.60336304 212.65533447 C100.63346156 217.35080948 102.66398132 222.04610235 104.69450378 226.74139404 C106.28886631 230.4281966 107.8830149 234.11509123 109.4765625 237.80224609 C110.92414681 241.15155979 112.37264217 244.50047813 113.82177734 247.84912109 C114.58752983 249.61919989 115.35238435 251.38966707 116.1171875 253.16015625 C120.22312692 262.64476563 124.42026552 272.08794474 128.62890625 281.52734375 C138.03911266 260.78912346 147.43087307 240.04388511 156.65710449 219.22305298 C162.0219566 207.11773268 167.43830395 195.03629998 172.87890625 182.96484375 C180.19409853 166.73089622 187.44985443 150.47185724 194.66351318 134.19250488 C197.50414696 127.78239769 200.3467221 121.37315453 203.19140625 114.96484375 C203.82958282 113.52720169 203.82958282 113.52720169 204.48065186 112.06051636 C211.58899171 96.05459995 218.776217 80.08548382 226.01879883 64.13989258 C229.46386835 56.55122964 232.89727908 48.95937444 236.23828125 41.32421875 C236.51232788 40.69963776 236.78637451 40.07505676 237.06872559 39.43154907 C238.29342155 36.63909136 239.51130742 33.84413356 240.71484375 31.04248047 C249.64678731 10.60654979 261.64906625 -4.06610919 282.32421875 -13.1875 C309.32414624 -23.6874718 340.96938545 -18.24408366 367.26171875 -8.06640625 C379.1274965 -2.60389987 387.06104958 5.26833402 391.62890625 17.52734375 C395.77722088 31.78313218 395.04148342 46.64295944 394.97710311 61.33909154 C394.96401197 65.09480887 394.96854134 68.85051318 394.97080994 72.60624695 C394.9723745 79.0955937 394.96305143 85.58484918 394.94609642 92.07417297 C394.9215992 101.45635264 394.91389025 110.83848868 394.91013245 120.22069687 C394.90358468 135.44679811 394.88366923 150.67285084 394.85522461 165.89892578 C394.8276405 180.67984781 394.80642829 195.46075661 394.79370117 210.24169922 C394.792913 211.15450329 394.79212483 212.06730735 394.79131278 213.00777215 C394.78739735 217.58755179 394.7836063 222.16733152 394.77987707 226.74711132 C394.74883336 264.67389858 394.69355864 302.60059597 394.62890625 340.52734375 C369.21890625 340.52734375 343.80890625 340.52734375 317.62890625 340.52734375 C317.13390625 194.50234375 317.13390625 194.50234375 316.62890625 45.52734375 C298.69048602 84.06532299 298.69048602 84.06532299 281.98632812 123.16210938 C279.84124703 128.42117336 279.84124703 128.42117336 277.62890625 129.52734375 C276.97459306 131.52123056 276.32579661 133.51700525 275.6953125 135.51855469 C273.31028647 142.24773527 270.11817025 148.67489639 267.12890625 155.15234375 C266.10890257 157.37323371 265.09021032 159.59471934 264.07214355 161.8164978 C263.44245313 163.18956291 262.81144143 164.56202319 262.17883301 165.93374634 C260.25998459 170.10382796 258.43608813 174.30730952 256.62890625 178.52734375 C255.34736608 181.40222076 254.04498975 184.267519 252.7421875 187.1328125 C251.96917623 188.83688591 251.1962298 190.54098875 250.42333984 192.24511719 C250.01911804 193.13581909 249.61489624 194.026521 249.19842529 194.94421387 C242.58017649 209.53167618 235.99740626 224.13390568 229.50390625 238.77734375 C228.85775582 240.23389046 228.21159695 241.69043342 227.56542969 243.14697266 C226.59123634 245.34313247 225.6170786 247.53930804 224.64303589 249.73553467 C218.29844648 264.03844815 211.92707643 278.32915504 205.49865723 292.59460449 C204.7098616 294.34744677 203.92455476 296.101858 203.13964844 297.85644531 C198.82514583 307.47412319 194.53504503 316.43883102 187.62890625 324.52734375 C186.96632813 325.32398438 186.30375 326.120625 185.62109375 326.94140625 C175.87609159 337.6932721 161.7537773 342.75170748 147.62890625 344.52734375 C142.88624457 344.73513429 138.14496697 344.75528142 133.3984375 344.76757812 C131.16236951 344.77719976 128.92725606 344.80824163 126.69140625 344.83984375 C113.80354825 344.93768764 101.28420082 343.82430871 89.81640625 337.40234375 C89.13771484 337.04269531 88.45902344 336.68304687 87.75976562 336.3125 C86.04127451 335.39939129 84.33408104 334.46508476 82.62890625 333.52734375 C81.96890625 333.19734375 81.30890625 332.86734375 80.62890625 332.52734375 C80.62890625 331.86734375 80.62890625 331.20734375 80.62890625 330.52734375 C80.05527344 330.29144531 79.48164062 330.05554687 78.890625 329.8125 C64.28485175 321.51319188 57.09638369 297.32820882 50.953125 282.93359375 C49.15079319 278.7153395 47.27815508 274.54865732 45.31640625 270.40234375 C42.0596943 263.50444691 38.93082596 256.55307337 35.81640625 249.58984375 C35.26090813 248.34789897 34.70540676 247.10595564 34.14990234 245.86401367 C33.86506989 245.22721176 33.58023743 244.59040985 33.28677368 243.93431091 C32.9949118 243.28180862 32.70304993 242.62930634 32.40234375 241.95703125 C31.95355362 240.95356407 31.95355362 240.95356407 31.49569702 239.92982483 C27.65792407 231.35202521 23.79907595 222.78370847 19.94140625 214.21484375 C19.1727619 212.50724657 18.40412589 210.79964563 17.63549805 209.09204102 C16.0769064 205.6295197 14.51821639 202.16704269 12.95947266 198.70458984 C9.55509037 191.14219696 6.15201702 183.57921508 2.74887085 176.01626587 C0.8756054 171.85326659 -0.99774876 167.69030723 -2.87109375 163.52734375 C-3.62109417 161.86067727 -4.37109417 160.19401061 -5.12109375 158.52734375 C-5.49234375 157.70234375 -5.86359375 156.87734375 -6.24609375 156.02734375 C-9.62109375 148.52734375 -9.62109375 148.52734375 -10.7460022 146.02754211 C-11.4963023 144.36021195 -12.24660748 142.69288407 -12.99691772 141.02555847 C-14.86736775 136.86906201 -16.73773065 132.71252639 -18.60791016 128.5559082 C-22.03661654 120.93557904 -25.46603931 113.31557562 -28.89862061 105.69699097 C-30.4711663 102.20659485 -32.04321511 98.71597503 -33.61523438 95.2253418 C-34.3444827 93.60641682 -35.07395783 91.98759399 -35.80371094 90.36889648 C-42.3810893 75.779047 -48.87109335 61.15234464 -55.37109375 46.52734375 C-55.70109375 143.54734375 -56.03109375 240.56734375 -56.37109375 340.52734375 C-81.78109375 340.52734375 -107.19109375 340.52734375 -133.37109375 340.52734375 C-133.4372626 300.85725062 -133.49264262 261.18720965 -133.52428974 221.5170771 C-133.52804174 216.83088334 -133.53192472 212.14468969 -133.53588867 207.45849609 C-133.5366756 206.5255814 -133.53746253 205.5926667 -133.53827331 204.63148186 C-133.55131795 189.53699786 -133.5749666 174.44254823 -133.60255214 159.3480846 C-133.63063256 143.85329876 -133.64727558 128.35853089 -133.65335923 112.86372066 C-133.6574702 103.30692754 -133.67044222 93.75023157 -133.69484315 84.19346836 C-133.71073289 77.63504005 -133.71548679 71.07666178 -133.71159788 64.51821563 C-133.70968137 60.73751495 -133.71256516 56.95698374 -133.72871017 53.1763134 C-133.74612336 49.06846212 -133.7400299 44.96096841 -133.7318573 40.85308838 C-133.74059582 39.67017566 -133.74933435 38.48726294 -133.75833768 37.26850438 C-133.68537755 23.65895147 -130.44260194 11.38857287 -121.1484375 1.1484375 C-91.11256026 -26.24692306 -29.71816482 -25.40628316 0 0 Z " fill="#00608A" transform="translate(479.37109375,1649.47265625)"/>
<path d="M0 0 C1.04158428 -0.00445668 1.04158428 -0.00445668 2.10421067 -0.0090034 C4.40732105 -0.0176037 6.71037893 -0.01919127 9.01350403 -0.02069092 C10.675172 -0.02532557 12.33683893 -0.03035109 13.99850464 -0.03573608 C18.49929701 -0.04880743 23.00007449 -0.05529576 27.50088286 -0.05974674 C30.3226254 -0.06268849 33.14436398 -0.06679552 35.96610451 -0.07125092 C44.82251629 -0.0849175 53.67891889 -0.09458593 62.53534049 -0.09845281 C72.70531006 -0.10291921 82.87514427 -0.12040445 93.04507273 -0.1494534 C100.93849331 -0.17120409 108.83187619 -0.18116431 116.72532636 -0.18249393 C121.42359819 -0.18353325 126.12174267 -0.18925111 130.81998253 -0.20731354 C172.90565659 -0.35973777 217.70783702 2.84283941 249.99714661 33.35919189 C266.81831769 51.24991721 268.9595586 73.05189297 268.92414856 96.39874268 C268.92850437 98.31069638 268.93369039 100.22264835 268.93963623 102.13459778 C268.95294709 107.29404997 268.95361354 112.45342854 268.95107293 117.61289454 C268.94999737 121.93871829 268.95490171 126.26452751 268.95967835 130.59034812 C268.97074719 140.80855467 268.97122639 151.02672445 268.96516418 161.24493408 C268.95913249 171.74050363 268.97142105 182.23593885 268.99273425 192.73148549 C269.01042777 201.78165982 269.01633928 210.83179171 269.01309651 219.88198268 C269.0112951 225.2697998 269.01380412 230.65752117 269.02781105 236.04532242 C269.04051086 241.11966004 269.03833209 246.19379059 269.02540016 251.26812553 C269.02306065 253.11459744 269.02567287 254.96108448 269.03402328 256.80753899 C269.12665146 278.9096914 267.17067422 301.43191393 251.46980286 318.51153564 C244.01326489 325.56468713 234.95564683 331.76242247 225.64949036 336.14044189 C230.05518957 340.65159667 234.53687494 344.98245309 239.31745911 349.09356689 C242.31219098 351.72210878 245.22924638 354.42970907 248.14949036 357.14044189 C251.61219987 360.35220196 255.07598205 363.55147709 258.64949036 366.64044189 C262.22300822 369.72941496 265.68660149 372.92886403 269.14949036 376.14044189 C273.22437849 379.91926891 277.32843278 383.64603889 281.53620911 387.27716064 C284.95193107 390.28880459 288.28410847 393.39263532 291.61457825 396.49810791 C294.41253381 399.12271811 294.41253381 399.12271811 297.64949036 401.14044189 C297.64949036 401.80044189 297.64949036 402.46044189 297.64949036 403.14044189 C286.05338987 403.32607042 274.45764466 403.46808475 262.86035919 403.55493927 C257.47475586 403.5966328 252.09017138 403.653154 246.70515442 403.74395752 C241.5049646 403.83109239 236.30575259 403.87875991 231.10488892 403.89945984 C229.12409068 403.91420453 227.14334404 403.94299921 225.16296387 403.98628235 C209.63488789 404.31206456 209.63488789 404.31206456 204.73860168 401.42266846 C202.7394126 399.43285664 201.23447097 397.46242949 199.64949036 395.14044189 C198.43118214 394.00140321 197.18396308 392.8918093 195.89949036 391.82794189 C193.45184199 389.72857551 191.04800846 387.59571305 188.68855286 385.39825439 C188.16616028 384.91268066 187.6437677 384.42710693 187.10554504 383.92681885 C186.0795882 382.97041034 185.05661119 382.01079148 184.03718567 381.04742432 C180.78001676 378.01769001 177.37817616 375.55466121 173.64949036 373.14044189 C171.27449036 371.01544189 171.27449036 371.01544189 169.64949036 369.14044189 C169.64949036 368.48044189 169.64949036 367.82044189 169.64949036 367.14044189 C169.05652161 366.87618408 168.46355286 366.61192627 167.85261536 366.33966064 C165.56919981 365.09673764 164.17522312 363.83642544 162.39949036 361.95294189 C159.16783361 358.61636122 155.76994152 355.55303112 152.25105286 352.52325439 C151.36096217 351.75473707 150.48101916 350.9719707 149.64949036 350.14044189 C138.29451151 349.60497826 126.4203011 349.998941 115.17965698 351.65014648 C109.60147992 352.35287102 104.02756754 352.29599998 98.41291809 352.30157471 C96.60388252 352.30902206 96.60388252 352.30902206 94.75830078 352.31661987 C91.46861029 352.32866878 88.17895521 352.3361713 84.8892467 352.34063053 C82.82603423 352.34357696 80.76282712 352.34768467 78.69961739 352.3521347 C72.22136891 352.36578777 65.74313292 352.37546424 59.26487106 352.3793366 C51.82966448 352.38380745 44.39464263 352.40131919 36.95949215 352.43033719 C31.18419356 352.45208116 25.40894646 352.46204765 19.63360745 352.46337771 C16.19753414 352.46441701 12.76163497 352.47013455 9.32560539 352.48819733 C-18.10194845 352.6110262 -18.10194845 352.6110262 -30.35050964 349.14044189 C-31.775961 348.74672142 -31.775961 348.74672142 -33.23020935 348.345047 C-35.62250469 347.66039893 -37.98442512 346.91032292 -40.35050964 346.14044189 C-42.03145871 345.62598656 -43.71244918 345.11166653 -45.39347839 344.59747314 C-69.47671405 336.98992781 -90.92499909 325.62950279 -103.16300964 302.39044189 C-110.17630924 288.60627774 -110.93731955 274.84194801 -110.86808777 259.7053833 C-110.87352008 257.69136553 -110.88064891 255.67735174 -110.889328 253.66334534 C-110.90743473 248.23547861 -110.90054581 242.80791884 -110.88781166 237.38004732 C-110.87761521 231.67186496 -110.88709592 225.96370718 -110.89335632 220.25552368 C-110.90061467 210.67121716 -110.89109396 201.08703429 -110.87199402 191.50274658 C-110.85024132 180.46059514 -110.85727248 169.41873939 -110.87929964 158.37659514 C-110.89752032 148.8576089 -110.89997913 139.33871107 -110.88954496 129.819713 C-110.88334496 124.15140279 -110.88237709 118.48323099 -110.89569092 112.81492996 C-110.90734586 107.48113788 -110.89904956 102.14772246 -110.87611389 96.81397057 C-110.87087734 94.86991052 -110.87225247 92.92581814 -110.88116455 90.98177147 C-110.97157425 69.23548491 -107.19830836 50.89180455 -92.35050964 34.14044189 C-91.83101746 33.52684814 -91.31152527 32.91325439 -90.77629089 32.28106689 C-70.05349649 9.52253199 -29.50942874 0.07115014 0 0 Z M-21.22550964 69.26544189 C-22.60775752 71.20475386 -22.60775752 71.20475386 -22.35050964 74.14044189 C-23.01050964 74.14044189 -23.67050964 74.14044189 -24.35050964 74.14044189 C-28.11274521 82.82403612 -27.7815261 91.40255654 -27.75456238 100.67877197 C-27.76027144 102.45371428 -27.76723777 104.22865291 -27.77536011 106.00358582 C-27.79324961 110.80541163 -27.79213079 115.60705428 -27.78641772 120.40890336 C-27.78331908 124.4270129 -27.78942598 128.4450876 -27.79545647 132.46319216 C-27.80948693 141.94849325 -27.80795335 151.43370424 -27.79655457 160.91900635 C-27.78508091 170.681915 -27.79913977 180.4445487 -27.82595104 190.20742112 C-27.84815528 198.60943872 -27.85473461 207.0113703 -27.84887463 215.41341513 C-27.8455144 220.42271395 -27.84785749 225.43183666 -27.86512566 230.44111061 C-27.88066764 235.15512307 -27.87655928 239.86873055 -27.85782051 244.58272743 C-27.8541543 246.3047427 -27.85718513 248.02678845 -27.8677063 249.74877548 C-27.94250044 263.01124373 -26.61776174 275.8370995 -17.35050964 286.14044189 C-1.15954161 300.44458845 17.9181673 301.30800384 38.49714661 301.23809814 C40.12096106 301.23622998 41.74477609 301.23480796 43.36859131 301.23381042 C47.6149098 301.23001659 51.86119335 301.22021352 56.10749817 301.20910645 C60.45156889 301.1988245 64.79564532 301.19429835 69.13972473 301.18927002 C77.64299586 301.17858805 86.14623875 301.16154985 94.64949036 301.14044189 C93.71235278 300.0314733 92.77293863 298.92442832 91.83259583 297.81817627 C91.30970978 297.20148071 90.78682373 296.58478516 90.24809265 295.94940186 C87.91378049 293.30792107 85.39388379 291.00275958 82.77449036 288.64044189 C82.25274231 288.16832275 81.73099426 287.69620361 81.19343567 287.20977783 C77.67072717 284.03043019 74.12297034 280.87955745 70.53230286 277.77716064 C69.16096056 276.58506018 67.80334967 275.37710857 66.45417786 274.15997314 C65.37523254 273.19124268 65.37523254 273.19124268 64.27449036 272.20294189 C63.30382629 271.32315674 63.30382629 271.32315674 62.31355286 270.42559814 C60.73609978 268.93669657 60.73609978 268.93669657 58.64949036 269.14044189 C58.38781067 268.54231689 58.12613098 267.94419189 57.85652161 267.32794189 C56.56921783 264.99496418 55.38401574 263.82364906 53.33699036 262.14044189 C49.40943333 258.81934588 45.61072566 255.38376441 41.83699036 251.89044189 C41.27391174 251.37094971 40.71083313 250.85145752 40.13069153 250.31622314 C37.59105278 247.96689521 35.08508726 245.5971866 32.64949036 243.14044189 C44.11573565 243.10892214 55.58128926 243.11508806 67.04747009 243.16890812 C72.37220118 243.19272703 77.69630714 243.20373233 83.02107239 243.18511963 C88.16322534 243.16762225 93.30425714 243.18422069 98.4462738 243.22411919 C100.40456714 243.23338871 102.36295797 243.230526 104.32121277 243.21513557 C121.60170977 243.09254895 121.60170977 243.09254895 126.71980286 247.519104 C127.73239006 248.69616066 128.71328306 249.90176877 129.64949036 251.14044189 C130.67235508 252.10861709 131.71366505 253.0577659 132.77449036 253.98419189 C133.72324036 254.86075439 134.67199036 255.73731689 135.64949036 256.64044189 C138.92730445 259.66049061 142.21532304 262.66248326 145.58699036 265.57794189 C149.17909452 268.69009894 152.66466281 271.90951529 156.14949036 275.14044189 C163.06325804 281.53970123 169.87133212 287.79295811 177.64949036 293.14044189 C187.26199371 286.48000175 194.304806 278.9635004 196.64949036 267.14044189 C196.74899471 264.67958329 196.79731615 262.24687692 196.79666138 259.78605652 C196.80033807 259.04310996 196.80401475 258.3001634 196.80780286 257.53470331 C196.81882057 255.04381945 196.82268032 252.55297732 196.82649231 250.06207275 C196.83275852 248.27639636 196.83940546 246.49072127 196.84640503 244.70504761 C196.86743319 238.8384695 196.87780787 232.97189117 196.88777161 227.10528564 C196.89181996 225.08350676 196.8959369 223.06172802 196.90012169 221.03994942 C196.91917248 211.53855228 196.93340243 202.03716289 196.94173366 192.53575033 C196.95149891 181.58058096 196.97780035 170.62561402 197.01823455 159.67051595 C197.04843717 151.19559719 197.06320656 142.72073631 197.06651467 134.24576479 C197.06886087 129.18777358 197.07776506 124.12999866 197.10297585 119.07206535 C197.12633344 114.30891092 197.13045897 109.54611399 197.12021446 104.78291702 C197.11972082 103.04112239 197.12599032 101.2993097 197.13977051 99.5575695 C197.23079458 87.36365555 196.45713807 75.48973639 187.64949036 66.14044189 C174.95762987 54.40481747 158.15623619 51.6761831 141.48420715 51.73638916 C140.1190994 51.73066877 138.75399642 51.72369815 137.38890076 51.71559143 C133.7212874 51.69782625 130.05391545 51.69879689 126.38627219 51.70453382 C123.30530395 51.70765083 120.22438043 51.7015054 117.14341861 51.69549507 C109.86423516 51.68150528 102.58516919 51.68296387 95.3059845 51.69439697 C87.84018254 51.70586535 80.37474036 51.69181151 72.90898579 51.6650005 C66.45924465 51.64272041 60.00961542 51.63623382 53.55983859 51.64207691 C49.7252873 51.64541937 45.89096627 51.64321529 42.05644798 51.62582588 C7.31252903 51.25727661 7.31252903 51.25727661 -21.22550964 69.26544189 Z " fill="#E48D00" transform="translate(1853.3505096435547,1638.8595581054688)"/>
<path d="M0 0 C5.15929751 3.99222883 10.14578371 8.18392915 15.09375 12.43359375 C21.43067858 17.48214077 28.06572875 17.54889551 35.9921875 17.9296875 C37.38496476 18.00075561 38.77770461 18.07255972 40.17041016 18.14501953 C41.24636444 18.20039886 41.24636444 18.20039886 42.34405518 18.25689697 C54.62291847 18.91058505 66.69299286 19.59660459 78.6875 22.5 C79.80833984 22.76586914 80.92917969 23.03173828 82.08398438 23.30566406 C120.6464627 32.55869639 151.35770038 48.83403791 184.25 70.75 C185.01177551 71.25715546 185.77355103 71.76431091 186.55841064 72.28683472 C199.56480636 80.95910911 212.44051541 89.79037943 224.75 99.4375 C225.50893555 100.03030762 226.26787109 100.62311523 227.04980469 101.23388672 C233.18501065 106.05218587 239.17468897 111.01876547 245.078125 116.1171875 C246.80338799 117.59957366 248.54116061 119.06630295 250.28125 120.53125 C256.32540027 125.63568227 262.14935767 130.80454816 267.671875 136.48046875 C269.64856733 138.46099188 271.69218787 140.30007486 273.8125 142.125 C279.52597503 147.04650819 284.63252175 152.3668496 289.546875 158.078125 C291.77202282 160.595628 294.05702505 163.0464035 296.35693359 165.49536133 C302.42156713 171.95672225 308.14968246 178.57772807 313.6875 185.5 C314.68044221 186.70335139 315.67536509 187.90507015 316.671875 189.10546875 C331.71180248 207.2780485 344.80912887 226.76596387 357.6875 246.5 C358.31785156 247.46437988 358.94820312 248.42875977 359.59765625 249.42236328 C371.53578135 267.81166752 380.18402841 286.97738082 388.19894409 307.31143188 C394.88211424 324.25476044 402.20868277 340.87958913 409.75634766 357.45343018 C410.63067835 359.3751123 411.50147038 361.29835206 412.37109375 363.22216797 C421.07018839 382.40962702 430.47070433 401.23094165 439.98632812 420.02441406 C445.34124242 430.62841128 450.52368058 441.26786296 455.28509521 452.15405273 C458.25585654 458.86301805 461.81843276 464.88010789 465.97265625 470.91796875 C467.6875 473.5 467.6875 473.5 468.6875 476.5 C470.88005295 477.61251166 470.88005295 477.61251166 473.6875 478.5 C489.75299025 484.44460763 505.29113499 491.4781059 520.83764648 498.64794922 C522.58255007 499.45165959 524.32930369 500.25134993 526.07617188 501.05078125 C538.51734076 506.75971589 550.33680775 512.83747134 561.6875 520.5 C562.32671387 520.92748535 562.96592773 521.3549707 563.62451172 521.79541016 C579.04236603 532.13399122 594.06925872 543.0612262 608.6875 554.5 C609.79150111 555.35698415 610.89567163 556.21375011 612 557.0703125 C620.69264009 563.8338805 629.21142 570.79905051 637.67724609 577.84375 C639.52487782 579.36601544 641.39141541 580.85939013 643.26953125 582.34375 C650.13688793 587.83663354 655.59114724 593.67701002 660.83203125 600.734375 C662.87717309 603.48456217 665.02564993 606.10578555 667.26171875 608.703125 C668.16277344 609.76140503 668.16277344 609.76140503 669.08203125 610.84106445 C670.2504402 612.20723108 671.43094616 613.56317211 672.625 614.90698242 C675.51776502 618.33334293 676.6292039 619.86250394 677.05078125 624.47265625 C676.87095703 625.97119141 676.87095703 625.97119141 676.6875 627.5 C672.50349026 628.78251274 668.31470465 630.04872749 664.125 631.3125 C662.38186523 631.84713867 662.38186523 631.84713867 660.60351562 632.39257812 C647.59252863 636.29945852 634.62975335 638.65702461 621.13894653 640.14910889 C608.38127326 641.58005304 595.95268028 643.63437766 583.49755859 646.78955078 C579.16053404 647.88605308 574.81289188 648.93796546 570.46459961 649.98876953 C568.24383978 650.52646911 566.02451655 651.07014719 563.80688477 651.62060547 C562.80584717 651.86568848 561.80480957 652.11077148 560.7734375 652.36328125 C559.8870459 652.58282471 559.0006543 652.80236816 558.08740234 653.02856445 C555.6875 653.5 555.6875 653.5 551.6875 653.5 C561.84659252 672.5831581 580.29098843 682.50734723 598.3359375 693.046875 C610.5319766 700.19742943 622.00445026 707.53430365 632.6953125 716.80786133 C635.06393832 718.81974191 637.49466978 720.74672987 639.921875 722.6875 C646.02786924 727.67357421 651.63822508 733.10137348 657.1875 738.6875 C657.69284271 739.19300385 658.19818542 739.69850769 658.71884155 740.21932983 C664.80013383 746.31407071 670.61121712 752.44670802 675.6730957 759.43115234 C678.87245912 763.74561175 682.54789338 767.32487452 686.4465332 771.01220703 C695.50392969 779.59155655 701.74368477 787.57202737 705.6875 799.5 C705.6875 800.49 705.6875 801.48 705.6875 802.5 C700.61334816 801.19951368 697.52986497 798.91834293 693.875 795.3125 C692.8305104 794.31910046 691.78361579 793.32822371 690.734375 792.33984375 C690.22197266 791.85628418 689.70957031 791.37272461 689.18164062 790.87451172 C683.04021017 785.20059434 683.04021017 785.20059434 675.6875 781.5 C674.97078125 780.778125 674.2540625 780.05625 673.515625 779.3125 C670.09294186 775.90872671 666.38748505 773.25450285 662.4375 770.5 C661.72464844 769.99210937 661.01179688 769.48421875 660.27734375 768.9609375 C655.26418684 765.43817859 650.09667961 762.37471979 644.6875 759.5 C644.6875 758.84 644.6875 758.18 644.6875 757.5 C643.99785156 757.23832031 643.30820313 756.97664063 642.59765625 756.70703125 C639.34368608 755.35739798 636.26031896 753.79473815 633.125 752.1875 C626.06506917 748.60282288 618.90108457 745.26897972 611.70547485 741.96640015 C574.90328665 725.04982438 535.04264555 702.586005 512.6875 667.5 C512.6875 666.84 512.6875 666.18 512.6875 665.5 C512.0275 665.5 511.3675 665.5 510.6875 665.5 C510.4201001 664.89937744 510.1527002 664.29875488 509.87719727 663.67993164 C508.67049972 660.97305806 507.46029859 658.26776528 506.25 655.5625 C505.61868164 654.14420898 505.61868164 654.14420898 504.97460938 652.69726562 C504.57177734 651.79814453 504.16894531 650.89902344 503.75390625 649.97265625 C503.38209229 649.14000244 503.01027832 648.30734863 502.62719727 647.44946289 C501.84019891 645.54272188 501.84019891 645.54272188 500.6875 644.5 C500.7706046 640.1785606 501.08130404 638.12359872 504.13671875 634.98046875 C508.14563011 631.84833934 512.62388328 630.52889105 517.4375 629.0625 C519.32438777 628.46407435 521.21110378 627.86510686 523.09765625 627.265625 C524.50942139 626.82379883 524.50942139 626.82379883 525.94970703 626.37304688 C528.45943772 625.57272612 530.94777638 624.73070331 533.43359375 623.859375 C561.30117524 614.10450668 590.16765948 611.28148893 619.5625 611.4375 C621.23307156 611.44253086 622.9036446 611.44709093 624.57421875 611.45117188 C628.61201682 611.46203841 632.64974132 611.47921319 636.6875 611.5 C633.34679309 606.11105639 630.27168517 601.58725643 625.125 597.75 C624.58254639 597.34499268 624.04009277 596.93998535 623.48120117 596.52270508 C617.48489598 592.15765721 611.10875004 588.37691173 604.77246094 584.53271484 C596.45849148 579.45492606 588.64693647 573.81540028 580.80761719 568.04345703 C575.49627947 564.17677381 570.05420301 560.49466622 564.61669922 556.80859375 C563.33024617 555.93598069 562.04541182 555.06097648 560.76220703 554.18359375 C542.42602525 541.65082987 523.88349158 532.7708596 502.90518188 525.52102661 C500.25816795 524.60622293 497.6136888 523.68435897 494.96948242 522.76147461 C486.33402243 519.75491059 477.68295337 516.82153443 468.9777832 514.02294922 C440.13202352 504.71908609 430.41746361 488.00654524 416.97363281 461.91235352 C415.99508801 459.99873697 415.01878113 458.08397407 414.04492188 456.16796875 C412.81596517 453.75249413 411.57432663 451.34410624 410.328125 448.9375 C409.63459373 447.58375461 408.94182425 446.22961855 408.25 444.875 C407.67378906 443.74835938 407.09757812 442.62171875 406.50390625 441.4609375 C404.9227898 438.17380968 403.64061335 434.8034379 402.35546875 431.390625 C399.70097807 424.3923768 396.63114646 417.6413403 393.4375 410.875 C392.83067727 409.58087303 392.22399172 408.28668173 391.61743164 406.99243164 C387.2366592 397.67064173 382.73356119 388.41021909 378.20962524 379.1572876 C367.56395149 357.36991477 357.38166735 335.5918535 349.13623047 312.75683594 C345.92436483 303.93630717 342.22854228 295.7046247 337.6875 287.5 C336.99382324 286.22576172 336.99382324 286.22576172 336.28613281 284.92578125 C328.70456195 271.03188653 320.56826972 257.60017524 311.6875 244.5 C311.12417969 243.66871582 310.56085937 242.83743164 309.98046875 241.98095703 C296.57341508 222.30542482 281.9993832 203.60574594 265.953125 186.01171875 C264.71668303 184.64097361 263.48648154 183.2640569 262.28930664 181.85888672 C257.21142902 175.92278708 251.75562705 170.38198136 246.23510742 164.86230469 C244.61932344 163.24431569 243.01174138 161.61845683 241.40429688 159.9921875 C240.36246907 158.9474279 239.32016769 157.9031403 238.27734375 156.859375 C237.34784912 155.92577148 236.41835449 154.99216797 235.46069336 154.03027344 C232.69275904 151.50479837 229.81673943 149.54738752 226.6875 147.5 C225.33830468 145.84614767 224.00616272 144.178298 222.6875 142.5 C218.19613392 138.19162211 218.19613392 138.19162211 212.6875 135.5 C210.99204514 133.8626276 209.32813939 132.1922937 207.6875 130.5 C188.96563213 113.94456589 167.29850335 99.9645282 145.6875 87.5 C145.01847656 87.11134766 144.34945312 86.72269531 143.66015625 86.32226562 C111.08181199 67.48506657 79.60330959 54.48083098 41.94384766 52.21337891 C37.49059478 51.94513353 33.03893959 51.65633542 28.58746338 51.36016846 C25.92083753 51.1904179 23.25362859 51.04670571 20.58544922 50.90380859 C4.42194771 49.92045605 4.42194771 49.92045605 -2.3125 44.5 C-2.85527588 44.07887939 -3.39805176 43.65775879 -3.95727539 43.22387695 C-5.492475 41.96956255 -6.96590294 40.64086161 -8.4375 39.3125 C-32.85710514 18.10336942 -75.01644092 -7.43305612 -108.33105469 -6.66674805 C-112.23108658 -6.33854181 -115.18459927 -4.7721543 -118.3125 -2.5 C-120.26585182 -0.16209929 -120.26585182 -0.16209929 -121.3125 2.5 C-121.725 3.2425 -122.1375 3.985 -122.5625 4.75 C-125.42206885 15.23508578 -118.54401756 26.69053022 -113.57421875 35.625 C-109.64433353 41.9850901 -105.06379588 47.74159184 -100.3125 53.5 C-92.39232489 63.14990189 -84.89788098 72.99800938 -77.83007812 83.29101562 C-76.80726752 84.77981717 -75.77981722 86.26544055 -74.74804688 87.74804688 C-59.00676746 110.39442284 -49.5772109 134.75312657 -41.25 160.9375 C-40.09456328 164.54104469 -38.93577216 168.14350981 -37.77734375 171.74609375 C-37.4936795 172.62937851 -37.21001526 173.51266327 -36.91775513 174.42271423 C-30.66208286 194.48836924 -30.66208286 194.48836924 -23.0625 214.0625 C-22.69390869 214.91054199 -22.32531738 215.75858398 -21.94555664 216.63232422 C-13.54578475 235.52439992 -3.23834014 252.57415986 11.4375 267.25 C17.85893717 273.67143717 21.87379154 279.5900182 22.25 288.8125 C21.7025954 304.09152848 15.76737069 318.25422463 10.45056152 332.39788818 C6.37292325 343.26649574 3.00218451 354.11208447 0.6875 365.5 C0.44515625 366.67691406 0.2028125 367.85382813 -0.046875 369.06640625 C-1.13738705 374.95369764 -1.51192261 380.51732184 -1.3125 386.5 C-1.9725 386.5 -2.6325 386.5 -3.3125 386.5 C-3.97932116 431.48478105 -4.86993024 495.20350907 28.6875 530.5 C33.91909441 535.03344403 37.81725097 536.60625211 44.6875 537.5 C44.73865967 536.6042627 44.78981934 535.70852539 44.8425293 534.78564453 C45.42596546 525.2723766 46.33601292 515.83512331 47.5 506.375 C47.58775696 505.65899628 47.67551392 504.94299255 47.76593018 504.20529175 C51.33604563 475.32393201 56.39071393 449.26125954 75.23535156 426.28759766 C77.64859148 423.31689444 79.98073406 420.28478741 82.3125 417.25 C82.95106934 416.42640991 82.95106934 416.42640991 83.60253906 415.58618164 C85.84756648 412.67401913 85.84756648 412.67401913 87.6875 409.5 C91.59367228 410.98165155 92.7736166 412.85026887 94.6875 416.5 C95.53012435 418.97341775 96.30925113 421.43767866 97.0625 423.9375 C106.98500805 455.02758873 122.68311977 485.20723242 138.6875 513.5 C139.55761719 515.04469971 139.55761719 515.04469971 140.4453125 516.62060547 C149.06709726 531.88529194 158.1035614 546.82088414 167.6875 561.5 C168.0798584 562.10440918 168.4722168 562.70881836 168.87646484 563.33154297 C180.34858377 580.97806065 192.46986158 598.23604816 206.93359375 613.55859375 C209.17799592 615.93685386 211.32524105 618.37781915 213.4375 620.875 C219.1009457 627.3981977 225.94945618 632.56375858 232.78125 637.80078125 C233.4103125 638.36152344 234.039375 638.92226562 234.6875 639.5 C234.6875 640.16 234.6875 640.82 234.6875 641.5 C222.94185178 640.10270432 214.92384533 631.24518111 207.125 623.0625 C200.64730549 616.32512063 194.09274402 610.20413793 186.6875 604.5 C185.60162034 603.61303932 184.52000896 602.72079093 183.4453125 601.8203125 C182.57648437 601.09585938 181.70765625 600.37140625 180.8125 599.625 C179.92820312 598.88507812 179.04390625 598.14515625 178.1328125 597.3828125 C176.01542444 595.75249134 174.0654442 594.66820403 171.6875 593.5 C170.35416667 591.83333333 169.02083333 590.16666667 167.6875 588.5 C164.29520053 585.31480934 160.76341151 582.3197421 157.0625 579.5 C154.42987787 577.28305505 152.35183998 574.85869372 150.15234375 572.22265625 C147.6690611 569.30231585 144.91092612 566.66487424 142.13671875 564.0234375 C136.84327408 558.88818773 132.23866459 553.29636322 127.6875 547.5 C127.05303955 546.71206055 127.05303955 546.71206055 126.40576172 545.90820312 C117.40785373 534.67667716 111.07985061 522.34263794 104.6875 509.5 C103.78189087 507.69491509 102.87446922 505.89074893 101.96688843 504.08665466 C98.52006098 497.23455035 95.09612687 490.37118772 91.6875 483.5 C91.3575 483.5 91.0275 483.5 90.6875 483.5 C89.90625896 487.86766974 89.12780793 492.23582608 88.35198975 496.60446167 C88.07592456 498.15834973 87.79943608 499.71216265 87.52252197 501.26589966 C86.11966587 509.14563445 84.73407258 517.023007 83.5390625 524.9375 C83.37116211 526.04552979 83.20326172 527.15355957 83.03027344 528.29516602 C82.72920716 530.31762115 82.43743716 532.34149336 82.15722656 534.36694336 C80.5367906 545.24197506 77.18434084 556.80123558 68.65234375 564.28515625 C60.17630976 570.36936407 51.02903899 572.55495584 40.6875 571.5 C25.01639299 568.81559741 13.51523464 557.15216054 4.5625 544.75 C-7.16662382 528.00905205 -15.34412955 510.0019756 -21.3125 490.5 C-21.64636719 489.41589844 -21.98023438 488.33179688 -22.32421875 487.21484375 C-27.78576422 466.68547719 -30.55869098 445.69533599 -31.3125 424.5 C-31.37630859 422.75589844 -31.37630859 422.75589844 -31.44140625 420.9765625 C-31.98001284 389.59375203 -25.94703101 359.6905723 -17.91247559 329.57304382 C-16.80945976 325.42592116 -15.75395007 321.27210791 -14.7578125 317.09765625 C-14.53923584 316.1840332 -14.32065918 315.27041016 -14.09545898 314.32910156 C-13.71769441 312.73254672 -13.34660328 311.13438621 -12.98461914 309.53417969 C-11.91554612 305.0632283 -10.35023587 301.28069021 -8.11669922 297.25683594 C-6.76341339 294.30047746 -7.22799554 292.49833586 -8.3125 289.5 C-10.45843365 285.68500684 -12.7452273 282.95166006 -16.1875 280.2109375 C-19.55847661 277.45644501 -21.79026581 274.3331812 -24.125 270.6875 C-24.76284424 269.71006836 -24.76284424 269.71006836 -25.41357422 268.71289062 C-29.66192513 262.11589632 -33.51944033 255.31516599 -37.25976562 248.42041016 C-38.23814621 246.63563704 -39.25056672 244.86964004 -40.265625 243.10546875 C-51.38230314 223.33495377 -58.52273978 201.4768298 -66.125 180.1875 C-66.48721649 179.17986603 -66.84943298 178.17223206 -67.22262573 177.13406372 C-71.39902601 165.48546417 -75.24533245 153.85169263 -78.27754211 141.84745789 C-82.00175627 127.34344866 -89.83984625 115.65382279 -98.65771484 103.74023438 C-100.36687524 101.42638726 -102.05400074 99.09763249 -103.73828125 96.765625 C-115.41738704 80.14093831 -115.41738704 80.14093831 -128.8684082 64.9921875 C-130.70278463 63.09671688 -131.82718997 60.92856846 -133.08984375 58.62890625 C-134.50599127 56.16309029 -136.06146434 53.81253516 -137.625 51.4375 C-148.58011478 34.26270715 -154.87478273 16.58363547 -150.5859375 -3.984375 C-149.66724171 -6.62842629 -148.6122963 -9.02359071 -147.3125 -11.5 C-146.93867187 -12.28246094 -146.56484375 -13.06492187 -146.1796875 -13.87109375 C-140.26634744 -25.48238731 -131.74828796 -32.30680454 -119.625 -36.875 C-80.13199189 -47.94606706 -30.87258119 -22.7168091 0 0 Z " fill="#00608A" transform="translate(1935.3125,942.5)"/>
<path d="M0 0 C25.41 0 50.82 0 77 0 C77.06621002 35.16023612 77.12157413 70.32041144 77.15319599 105.4806912 C77.15694784 109.63727406 77.16083083 113.79385679 77.16479492 117.95043945 C77.16558185 118.7778957 77.16636878 119.60535195 77.16717956 120.45788264 C77.18021238 133.83347957 77.20385445 147.20903759 77.23145839 160.58461148 C77.25957182 174.32224224 77.27618878 188.0598527 77.28226548 201.79751104 C77.28636964 210.26565052 77.29930429 218.73367997 77.3237494 227.20178556 C77.33967999 233.01876287 77.3443839 238.83568379 77.34050413 244.6526813 C77.33859387 248.00242312 77.34306984 251.3518201 77.35761642 254.70155334 C77.49523945 288.04183078 77.49523945 288.04183078 70.5 301.1875 C70.15743164 301.84693604 69.81486328 302.50637207 69.46191406 303.18579102 C57.48286354 325.10405816 33.75982363 337.13161637 10.74462891 344.21386719 C2.28227572 346.63770434 -6.33561701 348.46660806 -15 350 C-15.97923715 350.17535215 -16.95847429 350.35070431 -17.96738529 350.53137016 C-30.28847412 352.45343568 -42.57605529 352.26655976 -55.01928711 352.22705078 C-57.52393082 352.22648576 -60.02857486 352.22680499 -62.53321838 352.22793579 C-67.89740947 352.22838892 -73.26153998 352.22277425 -78.62571526 352.21146011 C-86.38112682 352.19511315 -94.13651493 352.18998777 -101.89194185 352.18748413 C-114.47867453 352.18312135 -127.06538109 352.16985097 -139.65209961 352.15087891 C-151.86922069 352.13248324 -164.08633464 352.11834485 -176.3034668 352.10986328 C-177.05822282 352.10933783 -177.81297885 352.10881239 -178.59060626 352.10827102 C-182.3775008 352.10566069 -186.16439539 352.10313333 -189.95129001 352.10064721 C-221.30088317 352.07995889 -252.65042767 352.04311317 -284 352 C-284 334.84 -284 317.68 -284 300 C-272.94757812 299.98598145 -272.94757812 299.98598145 -261.671875 299.97167969 C-238.04793506 299.93891441 -214.42407953 299.88658888 -190.80020678 299.82207905 C-187.12559398 299.81206259 -183.45098074 299.80221829 -179.77636719 299.79248047 C-179.04487292 299.7905391 -178.31337865 299.78859772 -177.55971789 299.78659752 C-165.74325455 299.75564659 -153.92681058 299.73861622 -142.11031437 299.72680578 C-129.96932889 299.7143583 -117.8284445 299.68677624 -105.68752289 299.64538693 C-98.87494511 299.62259011 -92.06249755 299.60659164 -85.24987793 299.60811615 C-78.82794459 299.60886496 -72.40632906 299.59082514 -65.984478 299.55883217 C-63.63687974 299.55036511 -61.28924571 299.54856132 -58.94163895 299.55419731 C-41.69992754 299.590053 -21.76061686 299.38241957 -8 287.234375 C-3.05377317 281.76498956 -1.70740439 276.61206394 -1.5859375 269.29296875 C-1.55688828 268.20487663 -1.55688828 268.20487663 -1.5272522 267.09480286 C-1.46777892 264.79248578 -1.42120155 262.49011781 -1.375 260.1875 C-1.33679042 258.62042168 -1.29773697 257.05336369 -1.2578125 255.48632812 C-1.16210437 251.65771848 -1.07795552 247.82901058 -1 244 C-1.82639921 244.00184359 -2.65279842 244.00368717 -3.50424004 244.00558662 C-23.73377303 244.05000683 -43.96329747 244.08297272 -64.19286919 244.10362434 C-73.97625367 244.11388007 -83.75960535 244.12782943 -93.54296875 244.15087891 C-102.0830666 244.17098945 -110.62314066 244.18375771 -119.16326153 244.18817699 C-123.6734348 244.1907549 -128.18354007 244.19669061 -132.69369125 244.21146011 C-178.98850316 244.357035 -232.00602066 244.23018133 -267.828125 210.1640625 C-268.54484375 209.44992187 -269.2615625 208.73578125 -270 208 C-270.63421875 207.38898438 -271.2684375 206.77796875 -271.921875 206.1484375 C-281.12743289 196.5762866 -286.25924588 183.50910052 -286.24050903 170.31835938 C-286.24221788 169.58873521 -286.24392673 168.85911104 -286.24568737 168.10737705 C-286.24895633 165.68606501 -286.23802185 163.26503609 -286.22705078 160.84375 C-286.22648611 159.09874986 -286.22680433 157.35374925 -286.22793579 155.60874939 C-286.2285081 150.88825732 -286.21677348 146.16786751 -286.20278788 141.44739914 C-286.19026024 136.5079882 -286.18910841 131.56857476 -286.18673706 126.62915039 C-286.18052827 117.28312051 -286.16412557 107.93713758 -286.14403808 98.59112835 C-286.11747369 85.95658729 -286.10670158 73.32203334 -286.09503365 60.68747139 C-286.07624456 40.79161244 -286.03639485 20.89585257 -286 1 C-260.59 1 -235.18 1 -209 1 C-208.98582031 13.37242188 -208.97164062 25.74484375 -208.95703125 38.4921875 C-208.93697422 46.33075004 -208.91566098 54.16927583 -208.88867188 62.0078125 C-208.84606811 74.44923732 -208.8085904 86.89052622 -208.80444336 99.33203125 C-208.80139931 108.39360098 -208.78084946 117.45493506 -208.73947543 126.51641381 C-208.71818385 131.31230649 -208.70552506 136.10786446 -208.71384621 140.90380478 C-208.72141068 145.42329457 -208.70546665 149.94210755 -208.67193985 154.46147346 C-208.66373537 156.11496169 -208.66392252 157.76851758 -208.67340279 159.42199898 C-208.7198485 168.41749521 -208.60106709 176.45548089 -203 184 C-191.78188452 195.28072855 -174.61101266 196.23223205 -159.60069656 196.3122654 C-158.01667556 196.31463186 -156.43265428 196.31681932 -154.84863281 196.31884766 C-153.12504995 196.32827603 -151.40147159 196.33855764 -149.67789841 196.3496151 C-145.09564855 196.37668877 -140.51343039 196.39220763 -135.93112183 196.40519714 C-131.61858979 196.41921187 -127.30614247 196.44382862 -122.99365234 196.4675293 C-110.41248338 196.53057934 -97.83123453 196.57677765 -85.25 196.625 C-57.1175 196.74875 -28.985 196.8725 0 197 C0 131.99 0 66.98 0 0 Z " fill="#006089" transform="translate(1222,1744)"/>
<path d="M0 0 C2.27834064 0.00028269 4.55668138 0.00012255 6.83502197 -0.0004425 C12.96812532 -0.00072729 19.10120877 0.00511766 25.23430753 0.01213145 C31.6631162 0.0184183 38.09192542 0.01897298 44.52073669 0.02015686 C55.29426454 0.02290346 66.06778431 0.02913308 76.84130859 0.03808594 C87.92919886 0.04729035 99.01708715 0.0543563 110.10498047 0.05859375 C110.79051015 0.05885647 111.47603983 0.0591192 112.18234313 0.05938988 C115.6220628 0.06069509 119.06178247 0.06195876 122.50150216 0.06320179 C150.95600422 0.0735381 179.41049433 0.09195664 207.86499023 0.11352539 C207.86499023 17.27352539 207.86499023 34.43352539 207.86499023 52.11352539 C197.7449231 52.13539917 197.7449231 52.13539917 187.42041016 52.15771484 C165.7675766 52.2066005 144.11480557 52.27004463 122.46203841 52.34251167 C119.09171738 52.35377817 115.72139593 52.36491689 112.35107422 52.37597656 C111.34473166 52.37928209 111.34473166 52.37928209 110.31805895 52.38265439 C99.4930083 52.41790753 88.66795771 52.44283901 77.84287115 52.46387241 C66.71324369 52.48573045 55.58368562 52.5190923 44.4541195 52.56222695 C38.2121141 52.58606185 31.97018967 52.60485421 25.72813988 52.6111393 C19.83891943 52.61723442 13.9499059 52.63739223 8.06076241 52.6678009 C5.91276874 52.67651073 3.76474795 52.68031857 1.61673737 52.67853355 C-26.06477347 52.09670613 -26.06477347 52.09670613 -50.07250977 63.80102539 C-56.11639252 73.5078674 -55.63202119 84.02687455 -55.58105469 95.09814453 C-55.57256012 97.90935939 -55.60134515 100.7185267 -55.63305664 103.52954102 C-55.6831712 116.57281094 -55.15574915 129.6197129 -45.67797852 139.65649414 C-35.7831843 149.04148631 -21.89852423 150.41346731 -8.86816406 150.40063477 C-7.24871132 150.41088432 -7.24871132 150.41088432 -5.59654236 150.42134094 C-3.26679731 150.43485951 -0.93702319 150.44395716 1.39275551 150.4490509 C5.10017036 150.45740931 8.80734694 150.47798305 12.51469421 150.50158691 C20.40225393 150.54964875 28.28984917 150.58269514 36.17749023 150.61352539 C45.28947013 150.64941637 54.40133452 150.69177182 63.51320457 150.74946594 C67.12920677 150.76923383 70.7451159 150.77779517 74.36116028 150.7857666 C114.91811394 150.97061408 159.60336299 156.76991674 190.57592773 185.72680664 C199.36859769 194.89459051 204.94293316 205.40983356 205.04199219 218.15429688 C205.04856339 218.8557634 205.05513458 219.55722992 205.06190491 220.279953 C205.0815868 222.59817631 205.09329438 224.91633471 205.10327148 227.23461914 C205.10734701 228.03113451 205.11142254 228.82764988 205.11562157 229.64830208 C205.13646916 233.87132632 205.1507717 238.09431828 205.16015625 242.31738281 C205.17116633 246.64777688 205.20550657 250.97764939 205.24532795 255.30786037 C205.27167705 258.66338451 205.27986456 262.01878837 205.28343773 265.37440681 C205.2882634 266.96857249 205.29976033 268.56273429 205.31847572 270.15679741 C205.5310529 289.47700937 200.14571 304.48570655 186.57983398 318.46899414 C176.18914652 328.2852371 163.77176179 334.5188569 150.82543945 340.24243164 C149.14257816 340.99018371 147.47301394 341.76773647 145.80639648 342.55102539 C128.76253516 349.9513451 108.28505957 352.29508728 89.81686401 352.23377991 C88.85685207 352.23463433 87.89684012 352.23548876 86.9077369 352.23636907 C83.71882657 352.23800479 80.52996987 352.232534 77.34106445 352.22705078 C75.04405214 352.22676847 72.74703973 352.2269275 70.45002747 352.22749329 C64.23386779 352.22777955 58.0177275 352.22191044 51.80157232 352.21491933 C45.29798322 352.20865734 38.79439365 352.20807974 32.290802 352.20689392 C21.38128311 352.2041415 10.47177137 352.19790028 -0.43774414 352.18896484 C-11.67049118 352.17977428 -22.90323629 352.1727015 -34.13598633 352.16845703 C-34.82932906 352.16819431 -35.5226718 352.16793158 -36.23702492 352.1676609 C-39.71560716 352.16635578 -43.19418942 352.16509209 -46.67277169 352.163849 C-75.49352326 352.15349616 -104.31426418 352.13506853 -133.13500977 352.11352539 C-133.13500977 334.95352539 -133.13500977 317.79352539 -133.13500977 300.11352539 C-126.48328613 300.09894287 -119.8315625 300.08436035 -112.97827148 300.06933594 C-90.99372191 300.01898471 -69.0092427 299.95253801 -47.02476311 299.87781048 C-33.69644388 299.83289862 -20.36816595 299.79347331 -7.03979492 299.76708984 C4.5809987 299.74407247 16.20170832 299.71063261 27.82243526 299.66482383 C33.97206092 299.64094215 40.12160364 299.62218023 46.27127457 299.61591148 C52.06773406 299.6098378 57.86398146 299.58975554 63.66036224 299.55924988 C65.77981719 299.55050619 67.89929989 299.5467394 70.01877213 299.54851723 C87.40279183 299.55848887 103.98114762 298.76100342 118.36499023 287.61352539 C125.24647304 280.73204258 127.06795767 273.94310369 127.16853333 264.53787231 C127.16762192 263.59604095 127.16671051 262.65420959 127.16577148 261.68383789 C127.17005661 260.69406952 127.17434174 259.70430115 127.17875671 258.68453979 C127.18447885 256.59853884 127.18501595 254.51251794 127.18066406 252.42651367 C127.17750706 249.25542738 127.20098011 246.08527764 127.22631836 242.91430664 C127.22859204 240.87915156 127.22929453 238.84399399 127.22827148 236.80883789 C127.24208611 235.40216354 127.24208611 235.40216354 127.25617981 233.96707153 C127.2074413 226.94297349 126.23678343 220.46348607 122.10327148 214.62524414 C109.65453328 202.83303168 92.39894395 200.00825016 75.66699219 199.92407227 C74.77150665 199.91577896 73.87602112 199.90748566 72.95339966 199.89894104 C71.01647469 199.88160831 69.07952955 199.86642333 67.1425724 199.85316467 C64.05741379 199.83196021 60.97235256 199.80494372 57.88725281 199.77648926 C51.31737082 199.7169648 44.74744041 199.66487943 38.17749023 199.61352539 C30.60070292 199.55384694 23.02396157 199.49098241 15.44725609 199.42164612 C12.4433939 199.39555809 9.43952585 199.3744421 6.43562317 199.3536377 C-2.76325017 199.27855059 -11.94323668 199.09754375 -21.13208008 198.64575195 C-22.35105752 198.58595028 -22.35105752 198.58595028 -23.59466076 198.52494049 C-29.86516692 198.18748495 -36.01548029 197.48181598 -42.19750977 196.36352539 C-43.19935303 196.18724609 -44.20119629 196.0109668 -45.23339844 195.8293457 C-61.0227018 192.95468661 -75.43431529 188.59847388 -90.08227539 182.03051758 C-93.08486082 180.68921039 -96.10950113 179.40216796 -99.13500977 178.11352539 C-99.13500977 177.45352539 -99.13500977 176.79352539 -99.13500977 176.11352539 C-102.10500977 175.12352539 -102.10500977 175.12352539 -105.13500977 174.11352539 C-105.13500977 173.45352539 -105.13500977 172.79352539 -105.13500977 172.11352539 C-105.67125977 171.86602539 -106.20750977 171.61852539 -106.76000977 171.36352539 C-118.83770858 165.0068418 -126.29388032 153.65218476 -131.13500977 141.11352539 C-133.15087954 133.61759911 -133.42887402 126.32323212 -133.40063477 118.59790039 C-133.40254822 117.42447083 -133.40446167 116.25104126 -133.40643311 115.04205322 C-133.40778742 112.57124618 -133.40414394 110.10043184 -133.39575195 107.62963867 C-133.38508078 103.88842399 -133.39565348 100.14769369 -133.40844727 96.40649414 C-133.42360485 71.86380763 -131.75535971 49.42030516 -113.95922852 30.74633789 C-83.10373322 1.98201724 -39.74486105 -0.06978929 0 0 Z " fill="#E38D00" transform="translate(1490.135009765625,1637.886474609375)"/>
<path d="M0 0 C25.41 0 50.82 0 77 0 C77.0093457 8.18208252 77.01869141 16.36416504 77.02832031 24.79418945 C77.06104925 50.99345736 77.11334975 77.19265126 77.17792095 103.39185889 C77.18793804 107.46346872 77.19778223 111.53507895 77.20751953 115.60668945 C77.2094609 116.41725126 77.21140228 117.22781306 77.21340248 118.06293734 C77.2443977 131.17608422 77.26139621 144.28921362 77.27319422 157.40239022 C77.28561864 170.86433086 77.31314912 184.32617993 77.35461307 197.78806275 C77.3797116 206.09037258 77.39311995 214.39253048 77.39142957 222.69487878 C77.39139975 228.39321341 77.4060836 234.09139364 77.43216428 239.78966806 C77.44676785 243.07410268 77.4528639 246.35815857 77.44580269 249.64262772 C77.43915144 253.21243077 77.45711243 256.78131758 77.48101807 260.35102844 C77.46937744 261.89047346 77.46937744 261.89047346 77.45750165 263.46101838 C77.55888181 272.04591961 79.2657628 280.31728865 85.125 286.875 C96.51088362 296.97966954 112.51279031 299.14103396 127.1938324 299.15821838 C128.09819489 299.16315636 129.00255738 299.16809434 129.9343248 299.17318195 C132.95287817 299.18849241 135.97141038 299.19690003 138.98999023 299.20532227 C141.15848475 299.21490586 143.32697741 299.22491623 145.49546814 299.23532104 C151.37501955 299.26232395 157.25457894 299.28335849 163.1341579 299.30332303 C169.28143435 299.32521106 175.42868631 299.35258596 181.57594299 299.37937927 C193.21338332 299.42926807 204.85083726 299.47422105 216.4883042 299.51740164 C229.73853293 299.5668066 242.98873708 299.62171265 256.23894203 299.67708123 C283.4926062 299.79084274 310.74629301 299.8969683 338 300 C338 317.16 338 334.32 338 352 C310.41046965 352.15301109 282.82092722 352.30184106 255.23133373 352.4429636 C242.4217028 352.50862096 229.61208716 352.57618329 216.80249023 352.64819336 C205.64076197 352.71093503 194.47902159 352.77014005 183.31725198 352.82505554 C177.40439187 352.85427124 171.4915533 352.88528678 165.57872581 352.92053413 C160.01797596 352.9536269 154.45722234 352.98200529 148.89642906 353.00670624 C146.85134454 353.01663279 144.80626768 353.02830876 142.76120377 353.04183006 C139.97716931 353.05998022 137.19317613 353.07193666 134.40910339 353.08229065 C133.59296088 353.08909444 132.77681836 353.09589823 131.93594426 353.10290819 C128.68828832 353.10941852 126.10433225 353.03477742 123 352 C121.08454674 351.77245693 119.16414468 351.58563588 117.2421875 351.421875 C84.92585318 348.49474333 50.52652224 343.88709729 25 322 C24.00806641 321.24009766 24.00806641 321.24009766 22.99609375 320.46484375 C9.54832142 309.75399573 2.97222713 293.50465345 0 277 C-0.36486151 272.96409605 -0.39479867 268.97104084 -0.36076355 264.92070007 C-0.36332682 263.77844855 -0.3658901 262.63619702 -0.36853105 261.45933181 C-0.37343154 257.6715513 -0.35703771 253.88417869 -0.34057617 250.09643555 C-0.33805309 247.36548616 -0.34007485 244.63454445 -0.34190369 241.90359497 C-0.34346951 236.04443407 -0.33413312 230.18537414 -0.31719017 224.32623863 C-0.29271025 215.8551431 -0.28498575 207.38409592 -0.2812262 198.91296885 C-0.27467574 185.16599134 -0.25475294 171.41906753 -0.22631836 157.67211914 C-0.19874126 144.32576769 -0.17752559 130.97943087 -0.16479492 117.63305664 C-0.16400675 116.80907427 -0.16321858 115.9850919 -0.16240653 115.13614037 C-0.15849114 111.00207097 -0.15470008 106.86800147 -0.15097082 102.7339319 C-0.11991873 68.48924034 -0.06463944 34.24464873 0 0 Z " fill="#E38D00" transform="translate(2169,1638)"/>
<path d="M0 0 C10.88402077 8.74817798 18.71625851 21.06393239 21 35 C21.30762546 38.40126003 21.38029606 41.77341231 21.375 45.1875 C21.37584595 46.56699829 21.37584595 46.56699829 21.37670898 47.97436523 C21.25376855 55.63362172 19.78630392 61.84960559 17 69 C16.64325691 70.32726156 16.29981295 71.65873154 16 73 C15.34 73 14.68 73 14 73 C13.7215625 73.99 13.7215625 73.99 13.4375 75 C7.97224856 86.40574213 -3.60719288 94.40387977 -15 99 C-30.50893311 104.14386061 -46.04896629 103.06034761 -61.03515625 96.71484375 C-74.65722784 89.83675135 -83.97468346 78.78471188 -89.22265625 64.52734375 C-94.00278887 48.98590755 -92.7701613 33.48420779 -85.875 18.75 C-77.69715603 3.47214505 -65.35655691 -4.91875896 -49 -10 C-31.83842953 -13.60209434 -14.20550753 -10.41997393 0 0 Z M-68.3125 16.875 C-76.86544654 28.23358507 -78.95997688 38.84034107 -78 53 C-76.06470913 64.12792252 -69.7975937 75.01735254 -60.64453125 81.7265625 C-58.14938751 83.2971491 -55.63727674 84.68341239 -53 86 C-51.98873047 86.51240234 -51.98873047 86.51240234 -50.95703125 87.03515625 C-42.09610681 90.7200668 -30.03551302 90.41653185 -21 87.375 C-9.25225138 82.27423774 -0.35710967 74.26769476 5.03515625 62.5390625 C9.80662655 49.98256171 8.76114728 37.10501331 3.375 24.875 C-2.0234438 15.02232691 -10.95598488 6.99649117 -21.5 3.125 C-38.82172945 -1.38783747 -56.70618431 2.91315899 -68.3125 16.875 Z " fill="#E48D00" transform="translate(2633,1892)"/>
<path d="M0 0 C7.8890625 -0.0928125 7.8890625 -0.0928125 15.9375 -0.1875 C17.578396 -0.21481201 19.21929199 -0.24212402 20.90991211 -0.27026367 C29.86664781 -0.3212009 37.92397513 -0.24986402 45.4375 5.3125 C49.49379575 9.56666384 50.09852025 13.29102022 50.3125 19 C50.15745939 25.08306398 48.57235813 28.46258317 44.1875 32.75 C41.11590254 34.91818644 38.61438719 36.05337478 35 37 C36.35029372 40.70771944 38.03012686 43.75992085 40.2578125 47.01171875 C40.88300781 47.93404297 41.50820312 48.85636719 42.15234375 49.80664062 C43.12880859 51.23266602 43.12880859 51.23266602 44.125 52.6875 C45.42346426 54.58437587 46.71795558 56.48397951 48.0078125 58.38671875 C48.58160645 59.22420654 49.15540039 60.06169434 49.74658203 60.92456055 C51 63 51 63 51 65 C46.20749794 65.59085642 41.77447442 65.82614501 37 65 C34.66628259 62.97109466 33.78991401 61.08735897 32.5078125 58.28125 C30.58315231 54.09287031 28.12733815 50.36204028 25.625 46.5 C21 39.30482612 21 39.30482612 21 37 C18.03 37 15.06 37 12 37 C12 46.24 12 55.48 12 65 C8.04 65 4.08 65 0 65 C0 43.55 0 22.1 0 0 Z M12 10 C12 15.61 12 21.22 12 27 C15.06303578 27.08115993 18.12390815 27.14057409 21.1875 27.1875 C22.05181641 27.21263672 22.91613281 27.23777344 23.80664062 27.26367188 C28.68835222 27.3197835 32.067322 27.25490183 36 24 C37.54586876 20.90826248 37.29359521 18.40570448 37 15 C34.64458882 11.80337054 32.81753539 10.72977113 29 10 C27.63199181 9.92291277 26.26076408 9.89196391 24.890625 9.90234375 C23.8701709 9.90609009 23.8701709 9.90609009 22.82910156 9.90991211 C21.97799805 9.91901611 21.12689453 9.92812012 20.25 9.9375 C17.5275 9.958125 14.805 9.97875 12 10 Z " fill="#E48D00" transform="translate(2575,1905)"/>
<path d="M0 0 C3.95704034 3.36925716 7.49517992 6.59526171 10.4375 10.875 C10.89898438 11.54015625 11.36046875 12.2053125 11.8359375 12.890625 C16.39370972 20.09240872 16.185254 26.31060954 14.75 34.5 C12.92954681 41.76899266 8.28296178 47.33732939 3.4375 52.875 C0.4375 51.875 0.4375 51.875 -1.01367188 49.28979492 C-1.51447266 48.15646729 -2.01527344 47.02313965 -2.53125 45.85546875 C-3.10163718 44.59754287 -3.67321541 43.34015653 -4.24584961 42.08325195 C-4.54216278 41.42539703 -4.83847595 40.76754211 -5.14376831 40.0897522 C-9.70617968 30.0224403 -14.02669207 20.88552321 -22.140625 13.1796875 C-25.90490396 9.59755107 -29.03586841 5.41948754 -31.5625 0.875 C-31.5625 -0.115 -31.5625 -1.105 -31.5625 -2.125 C-20.48667998 -4.656616 -9.69877318 -7.08939809 0 0 Z " fill="#00608A" transform="translate(1986.5625,1052.125)"/>
</svg>
